STARTFONT 2.1
COMMENT $XConsortium: luBS14.bdf,v 1.7 94/04/02 15:59:33 gildea Exp $
COMMENT  (c) Copyright Bigelow & Holmes 1986, 1985. Lucida is a registered
COMMENT  trademark of Bigelow & Holmes. See LEGAL NOTICE file for terms 
COMMENT  of the license. 
COMMENT GRID 0014 0014 0200 0200
FONT -RFX-Serene-Bold-R-Normal-Sans-14-140-75-75-P-92-iso10646-0400
SIZE 14 72 72
FONTBOUNDINGBOX 18 15 -1 -2
STARTPROPERTIES 24
FONTNAME_REGISTRY ""
FOUNDRY "RFX"
FAMILY_NAME "Serene"
WEIGHT_NAME "Bold"
SLANT "R"
SETWIDTH_NAME "Normal"
ADD_STYLE_NAME "Sans"
PIXEL_SIZE 14
POINT_SIZE 140
RESOLUTION_X 75
RESOLUTION_Y 75
SPACING "P"
AVERAGE_WIDTH 92
CHARSET_REGISTRY "iso10646"
CHARSET_ENCODING "0400"
FONT_ASCENT 13
FONT_DESCENT 2
DEFAULT_CHAR 32
COPYRIGHT "Copyright Bigelow & Holmes 1986, 1985."
FACE_NAME "Lucida Sans Bold"
COPYRIGHT2 "Cyrillic glyphs copyright 2000 Dmitry Yu. Bolkhovityanov, bolkhov@inp.nsk.su"
SOURCEDATE "Sat Jul 22 14:30:54 2000"
PKGVERSION "1.1"
ASSEMBLER "cvtbdf.pl (Linux)"
ENDPROPERTIES
CHARS 301
STARTCHAR space
ENCODING 32
SWIDTH 285 0
DWIDTH 4 0
BBX 0 0 0 0
BITMAP
ENDCHAR
STARTCHAR exclam
ENCODING 33
SWIDTH 285 0
DWIDTH 4 0
BBX 2 10 1 0
BITMAP
C0
C0
C0
C0
C0
80
80
00
C0
C0
ENDCHAR
STARTCHAR quotedbl
ENCODING 34
SWIDTH 500 0
DWIDTH 7 0
BBX 5 4 1 7
BITMAP
D8
D8
90
90
ENDCHAR
STARTCHAR numbersign
ENCODING 35
SWIDTH 714 0
DWIDTH 10 0
BBX 9 10 0 0
BITMAP
1B00
1B00
1B00
7F80
3600
3600
FF80
6C00
6C00
6C00
ENDCHAR
STARTCHAR dollar
ENCODING 36
SWIDTH 714 0
DWIDTH 10 0
BBX 7 12 1 -1
BITMAP
10
7C
D6
D0
F0
70
1C
1E
16
D6
7C
10
ENDCHAR
STARTCHAR percent
ENCODING 37
SWIDTH 857 0
DWIDTH 12 0
BBX 10 10 1 0
BITMAP
7000
D980
DB00
7200
0400
0800
1380
36C0
66C0
0380
ENDCHAR
STARTCHAR ampersand
ENCODING 38
SWIDTH 785 0
DWIDTH 11 0
BBX 9 10 1 0
BITMAP
3C00
6600
6600
6400
3980
5980
CD00
C600
E700
7980
ENDCHAR
STARTCHAR quotesingle
ENCODING 39
SWIDTH 285 0
DWIDTH 4 0
BBX 2 4 1 7
BITMAP
C0
C0
80
80
ENDCHAR
STARTCHAR parenleft
ENCODING 40
SWIDTH 428 0
DWIDTH 6 0
BBX 4 12 1 -1
BITMAP
30
60
60
C0
C0
C0
C0
C0
C0
60
60
30
ENDCHAR
STARTCHAR parenright
ENCODING 41
SWIDTH 428 0
DWIDTH 6 0
BBX 4 12 1 -1
BITMAP
C0
60
60
30
30
30
30
30
30
60
60
C0
ENDCHAR
STARTCHAR asterisk
ENCODING 42
SWIDTH 500 0
DWIDTH 7 0
BBX 5 5 1 5
BITMAP
20
A8
70
A8
20
ENDCHAR
STARTCHAR plus
ENCODING 43
SWIDTH 714 0
DWIDTH 10 0
BBX 7 7 1 1
BITMAP
10
10
10
FE
10
10
10
ENDCHAR
STARTCHAR comma
ENCODING 44
SWIDTH 285 0
DWIDTH 4 0
BBX 2 4 1 -2
BITMAP
C0
C0
40
80
ENDCHAR
STARTCHAR minus
ENCODING 45
SWIDTH 714 0
DWIDTH 10 0
BBX 7 1 1 4
BITMAP
FE
ENDCHAR
STARTCHAR period
ENCODING 46
SWIDTH 285 0
DWIDTH 4 0
BBX 2 2 1 0
BITMAP
C0
C0
ENDCHAR
STARTCHAR slash
ENCODING 47
SWIDTH 571 0
DWIDTH 8 0
BBX 8 12 0 -1
BITMAP
03
06
06
0C
0C
18
18
30
30
60
60
C0
ENDCHAR
STARTCHAR zero
ENCODING 48
SWIDTH 714 0
DWIDTH 10 0
BBX 8 10 1 0
BITMAP
3C
66
C3
C3
C3
C3
C3
C3
66
3C
ENDCHAR
STARTCHAR one
ENCODING 49
SWIDTH 714 0
DWIDTH 10 0
BBX 5 10 2 0
BITMAP
18
F8
18
18
18
18
18
18
18
18
ENDCHAR
STARTCHAR two
ENCODING 50
SWIDTH 714 0
DWIDTH 10 0
BBX 8 10 1 0
BITMAP
7E
C7
03
03
06
0C
18
60
FF
FF
ENDCHAR
STARTCHAR three
ENCODING 51
SWIDTH 714 0
DWIDTH 10 0
BBX 8 10 1 0
BITMAP
7E
C7
03
06
3C
06
03
03
C7
7E
ENDCHAR
STARTCHAR four
ENCODING 52
SWIDTH 714 0
DWIDTH 10 0
BBX 8 10 1 0
BITMAP
0C
1C
2C
4C
8C
FF
FF
0C
0C
0C
ENDCHAR
STARTCHAR five
ENCODING 53
SWIDTH 714 0
DWIDTH 10 0
BBX 7 10 2 0
BITMAP
FC
FC
80
80
FC
0E
06
06
CC
78
ENDCHAR
STARTCHAR six
ENCODING 54
SWIDTH 714 0
DWIDTH 10 0
BBX 8 10 1 0
BITMAP
3E
63
C0
DC
E6
C3
C3
C3
66
3C
ENDCHAR
STARTCHAR seven
ENCODING 55
SWIDTH 714 0
DWIDTH 10 0
BBX 8 10 1 0
BITMAP
FF
FF
06
0C
18
30
30
60
60
60
ENDCHAR
STARTCHAR eight
ENCODING 56
SWIDTH 714 0
DWIDTH 10 0
BBX 8 10 1 0
BITMAP
7E
C7
C3
72
3C
4E
C7
C3
E3
7E
ENDCHAR
STARTCHAR nine
ENCODING 57
SWIDTH 714 0
DWIDTH 10 0
BBX 8 10 1 0
BITMAP
3C
66
C3
C3
C3
67
1B
03
C6
7C
ENDCHAR
STARTCHAR colon
ENCODING 58
SWIDTH 285 0
DWIDTH 4 0
BBX 2 7 1 0
BITMAP
C0
C0
00
00
00
C0
C0
ENDCHAR
STARTCHAR semicolon
ENCODING 59
SWIDTH 285 0
DWIDTH 4 0
BBX 2 9 1 -2
BITMAP
C0
C0
00
00
00
C0
C0
40
80
ENDCHAR
STARTCHAR less
ENCODING 60
SWIDTH 714 0
DWIDTH 10 0
BBX 6 7 2 1
BITMAP
0C
38
60
C0
60
38
0C
ENDCHAR
STARTCHAR equal
ENCODING 61
SWIDTH 714 0
DWIDTH 10 0
BBX 7 3 1 3
BITMAP
FE
00
FE
ENDCHAR
STARTCHAR greater
ENCODING 62
SWIDTH 714 0
DWIDTH 10 0
BBX 6 7 2 1
BITMAP
C0
70
18
0C
18
70
C0
ENDCHAR
STARTCHAR question
ENCODING 63
SWIDTH 571 0
DWIDTH 8 0
BBX 6 10 1 0
BITMAP
78
CC
0C
0C
18
30
30
00
30
30
ENDCHAR
STARTCHAR at
ENCODING 64
SWIDTH 857 0
DWIDTH 12 0
BBX 10 10 1 0
BITMAP
1E00
6100
4180
8F80
9980
9980
9980
4EC0
6000
1F00
ENDCHAR
STARTCHAR A
ENCODING 65
SWIDTH 785 0
DWIDTH 11 0
BBX 9 10 1 0
BITMAP
1C00
1C00
2600
2600
6300
4300
FF00
C180
C180
C180
ENDCHAR
STARTCHAR B
ENCODING 66
SWIDTH 714 0
DWIDTH 10 0
BBX 7 10 2 0
BITMAP
FC
C6
C6
CC
F0
CC
C6
C6
C6
FC
ENDCHAR
STARTCHAR C
ENCODING 67
SWIDTH 785 0
DWIDTH 11 0
BBX 8 10 2 0
BITMAP
3E
63
C0
C0
C0
C0
C0
C0
63
3E
ENDCHAR
STARTCHAR D
ENCODING 68
SWIDTH 857 0
DWIDTH 12 0
BBX 9 10 2 0
BITMAP
FE00
C300
C180
C180
C180
C180
C180
C180
C300
FE00
ENDCHAR
STARTCHAR E
ENCODING 69
SWIDTH 642 0
DWIDTH 9 0
BBX 6 10 2 0
BITMAP
FC
C0
C0
C0
F8
C0
C0
C0
C0
FC
ENDCHAR
STARTCHAR F
ENCODING 70
SWIDTH 642 0
DWIDTH 9 0
BBX 6 10 2 0
BITMAP
FC
C0
C0
C0
F8
C0
C0
C0
C0
C0
ENDCHAR
STARTCHAR G
ENCODING 71
SWIDTH 785 0
DWIDTH 11 0
BBX 8 10 2 0
BITMAP
3E
63
C0
C0
C0
C3
C3
C3
63
3F
ENDCHAR
STARTCHAR H
ENCODING 72
SWIDTH 857 0
DWIDTH 12 0
BBX 8 10 2 0
BITMAP
C3
C3
C3
C3
FF
C3
C3
C3
C3
C3
ENDCHAR
STARTCHAR I
ENCODING 73
SWIDTH 428 0
DWIDTH 6 0
BBX 2 10 2 0
BITMAP
C0
C0
C0
C0
C0
C0
C0
C0
C0
C0
ENDCHAR
STARTCHAR J
ENCODING 74
SWIDTH 428 0
DWIDTH 6 0
BBX 4 12 0 -2
BITMAP
30
30
30
30
30
30
30
30
30
30
30
E0
ENDCHAR
STARTCHAR K
ENCODING 75
SWIDTH 785 0
DWIDTH 11 0
BBX 8 10 2 0
BITMAP
C3
C6
CC
D8
F0
D8
CC
C6
C3
C3
ENDCHAR
STARTCHAR L
ENCODING 76
SWIDTH 642 0
DWIDTH 9 0
BBX 6 10 2 0
BITMAP
C0
C0
C0
C0
C0
C0
C0
C0
C0
FC
ENDCHAR
STARTCHAR M
ENCODING 77
SWIDTH 1071 0
DWIDTH 15 0
BBX 11 10 2 0
BITMAP
E0E0
E0E0
B160
B160
B160
9A60
9A60
8C60
8C60
8060
ENDCHAR
STARTCHAR N
ENCODING 78
SWIDTH 857 0
DWIDTH 12 0
BBX 8 10 2 0
BITMAP
E1
E1
B1
B1
99
99
8D
8D
87
87
ENDCHAR
STARTCHAR O
ENCODING 79
SWIDTH 857 0
DWIDTH 12 0
BBX 10 10 1 0
BITMAP
3F00
6180
C0C0
C0C0
C0C0
C0C0
C0C0
C0C0
6180
3F00
ENDCHAR
STARTCHAR P
ENCODING 80
SWIDTH 642 0
DWIDTH 9 0
BBX 6 10 2 0
BITMAP
F8
CC
CC
CC
CC
F8
C0
C0
C0
C0
ENDCHAR
STARTCHAR Q
ENCODING 81
SWIDTH 857 0
DWIDTH 12 0
BBX 10 12 1 -2
BITMAP
3F00
6180
C0C0
C0C0
C0C0
C0C0
C0C0
C0C0
6180
3F00
0300
0180
ENDCHAR
STARTCHAR R
ENCODING 82
SWIDTH 785 0
DWIDTH 11 0
BBX 8 10 2 0
BITMAP
FC
C6
C6
C4
CC
F8
CC
C6
C3
C3
ENDCHAR
STARTCHAR S
ENCODING 83
SWIDTH 642 0
DWIDTH 9 0
BBX 7 10 1 0
BITMAP
7C
C6
C0
E0
78
3C
0E
06
C6
7C
ENDCHAR
STARTCHAR T
ENCODING 84
SWIDTH 714 0
DWIDTH 10 0
BBX 8 10 1 0
BITMAP
FF
18
18
18
18
18
18
18
18
18
ENDCHAR
STARTCHAR U
ENCODING 85
SWIDTH 857 0
DWIDTH 12 0
BBX 8 10 2 0
BITMAP
C3
C3
C3
C3
C3
C3
C3
C3
66
3C
ENDCHAR
STARTCHAR V
ENCODING 86
SWIDTH 785 0
DWIDTH 11 0
BBX 9 10 1 0
BITMAP
C180
C180
C180
6100
6300
6300
3200
3600
1C00
1C00
ENDCHAR
STARTCHAR W
ENCODING 87
SWIDTH 928 0
DWIDTH 13 0
BBX 11 10 1 0
BITMAP
C060
C060
C660
C660
6640
6B40
6B40
7BC0
3180
3180
ENDCHAR
STARTCHAR X
ENCODING 88
SWIDTH 642 0
DWIDTH 9 0
BBX 7 10 1 0
BITMAP
C6
C6
6C
6C
38
38
6C
6C
C6
C6
ENDCHAR
STARTCHAR Y
ENCODING 89
SWIDTH 714 0
DWIDTH 10 0
BBX 8 10 1 0
BITMAP
C3
C3
62
66
34
18
18
18
18
18
ENDCHAR
STARTCHAR Z
ENCODING 90
SWIDTH 642 0
DWIDTH 9 0
BBX 7 10 1 0
BITMAP
FE
06
0C
1C
18
30
70
60
C0
FE
ENDCHAR
STARTCHAR bracketleft
ENCODING 91
SWIDTH 428 0
DWIDTH 6 0
BBX 4 12 1 -1
BITMAP
F0
C0
C0
C0
C0
C0
C0
C0
C0
C0
C0
F0
ENDCHAR
STARTCHAR backslash
ENCODING 92
SWIDTH 571 0
DWIDTH 8 0
BBX 8 12 0 -1
BITMAP
C0
60
60
30
30
18
18
0C
0C
06
06
03
ENDCHAR
STARTCHAR bracketright
ENCODING 93
SWIDTH 428 0
DWIDTH 6 0
BBX 4 12 1 -1
BITMAP
F0
30
30
30
30
30
30
30
30
30
30
F0
ENDCHAR
STARTCHAR asciicircum
ENCODING 94
SWIDTH 714 0
DWIDTH 10 0
BBX 6 7 2 3
BITMAP
30
30
78
48
CC
84
84
ENDCHAR
STARTCHAR underscore
ENCODING 95
SWIDTH 785 0
DWIDTH 11 0
BBX 9 1 1 -1
BITMAP
FF80
ENDCHAR
STARTCHAR grave
ENCODING 96
SWIDTH 714 0
DWIDTH 10 0
BBX 5 2 2 9
BITMAP
E0
38
ENDCHAR
STARTCHAR a
ENCODING 97
SWIDTH 642 0
DWIDTH 9 0
BBX 8 8 1 0
BITMAP
7C
06
06
7E
C6
C6
CE
77
ENDCHAR
STARTCHAR b
ENCODING 98
SWIDTH 714 0
DWIDTH 10 0
BBX 8 11 1 0
BITMAP
C0
C0
C0
DC
E6
C3
C3
C3
C3
C6
FC
ENDCHAR
STARTCHAR c
ENCODING 99
SWIDTH 642 0
DWIDTH 9 0
BBX 7 8 1 0
BITMAP
3C
66
C0
C0
C0
C0
62
3C
ENDCHAR
STARTCHAR d
ENCODING 100
SWIDTH 714 0
DWIDTH 10 0
BBX 8 11 1 0
BITMAP
03
03
03
3F
63
C3
C3
C3
C3
67
3B
ENDCHAR
STARTCHAR e
ENCODING 101
SWIDTH 642 0
DWIDTH 9 0
BBX 7 8 1 0
BITMAP
3C
66
C6
FE
C0
C0
62
3C
ENDCHAR
STARTCHAR f
ENCODING 102
SWIDTH 500 0
DWIDTH 7 0
BBX 7 11 0 0
BITMAP
1E
30
30
FE
30
30
30
30
30
30
30
ENDCHAR
STARTCHAR g
ENCODING 103
SWIDTH 714 0
DWIDTH 10 0
BBX 8 10 1 -2
BITMAP
3F
63
C3
C3
C3
67
3B
03
C6
7C
ENDCHAR
STARTCHAR h
ENCODING 104
SWIDTH 714 0
DWIDTH 10 0
BBX 8 11 1 0
BITMAP
C0
C0
C0
DE
E7
C3
C3
C3
C3
C3
C3
ENDCHAR
STARTCHAR i
ENCODING 105
SWIDTH 285 0
DWIDTH 4 0
BBX 2 11 1 0
BITMAP
C0
C0
00
C0
C0
C0
C0
C0
C0
C0
C0
ENDCHAR
STARTCHAR j
ENCODING 106
SWIDTH 357 0
DWIDTH 5 0
BBX 4 13 0 -2
BITMAP
30
30
00
30
30
30
30
30
30
30
30
30
E0
ENDCHAR
STARTCHAR k
ENCODING 107
SWIDTH 642 0
DWIDTH 9 0
BBX 8 11 1 0
BITMAP
C0
C0
C0
C6
CC
D8
F0
D8
CC
C6
C7
ENDCHAR
STARTCHAR l
ENCODING 108
SWIDTH 285 0
DWIDTH 4 0
BBX 2 11 1 0
BITMAP
C0
C0
C0
C0
C0
C0
C0
C0
C0
C0
C0
ENDCHAR
STARTCHAR m
ENCODING 109
SWIDTH 1000 0
DWIDTH 14 0
BBX 12 8 1 0
BITMAP
DDE0
EF70
C630
C630
C630
C630
C630
C630
ENDCHAR
STARTCHAR n
ENCODING 110
SWIDTH 714 0
DWIDTH 10 0
BBX 8 8 1 0
BITMAP
DE
E7
C3
C3
C3
C3
C3
C3
ENDCHAR
STARTCHAR o
ENCODING 111
SWIDTH 714 0
DWIDTH 10 0
BBX 8 8 1 0
BITMAP
3C
66
C3
C3
C3
C3
66
3C
ENDCHAR
STARTCHAR p
ENCODING 112
SWIDTH 714 0
DWIDTH 10 0
BBX 8 10 1 -2
BITMAP
DC
E6
C3
C3
C3
C3
C6
FC
C0
C0
ENDCHAR
STARTCHAR q
ENCODING 113
SWIDTH 714 0
DWIDTH 10 0
BBX 8 10 1 -2
BITMAP
3F
63
C3
C3
C3
C3
67
3B
03
03
ENDCHAR
STARTCHAR r
ENCODING 114
SWIDTH 571 0
DWIDTH 8 0
BBX 5 8 2 0
BITMAP
D8
D8
E0
C0
C0
C0
C0
C0
ENDCHAR
STARTCHAR s
ENCODING 115
SWIDTH 571 0
DWIDTH 8 0
BBX 6 8 1 0
BITMAP
7C
C0
C0
F0
3C
0C
0C
F8
ENDCHAR
STARTCHAR t
ENCODING 116
SWIDTH 500 0
DWIDTH 7 0
BBX 5 10 1 0
BITMAP
60
60
F8
60
60
60
60
60
60
38
ENDCHAR
STARTCHAR u
ENCODING 117
SWIDTH 714 0
DWIDTH 10 0
BBX 8 8 1 0
BITMAP
C3
C3
C3
C3
C3
C3
E7
7B
ENDCHAR
STARTCHAR v
ENCODING 118
SWIDTH 642 0
DWIDTH 9 0
BBX 7 8 1 0
BITMAP
C6
C6
C6
C6
64
68
38
38
ENDCHAR
STARTCHAR w
ENCODING 119
SWIDTH 928 0
DWIDTH 13 0
BBX 11 8 1 0
BITMAP
C060
C460
C460
6EC0
6AC0
7B80
3180
3180
ENDCHAR
STARTCHAR x
ENCODING 120
SWIDTH 642 0
DWIDTH 9 0
BBX 7 8 1 0
BITMAP
C6
C6
64
38
38
4C
C6
C6
ENDCHAR
STARTCHAR y
ENCODING 121
SWIDTH 642 0
DWIDTH 9 0
BBX 7 10 1 -2
BITMAP
C6
C6
C6
C6
6C
68
38
30
60
E0
ENDCHAR
STARTCHAR z
ENCODING 122
SWIDTH 642 0
DWIDTH 9 0
BBX 7 8 1 0
BITMAP
FE
06
0C
18
30
60
C0
FE
ENDCHAR
STARTCHAR braceleft
ENCODING 123
SWIDTH 428 0
DWIDTH 6 0
BBX 4 12 1 -1
BITMAP
70
C0
C0
60
20
C0
20
60
C0
C0
C0
70
ENDCHAR
STARTCHAR bar
ENCODING 124
SWIDTH 285 0
DWIDTH 4 0
BBX 2 12 1 -1
BITMAP
C0
C0
C0
C0
C0
C0
C0
C0
C0
C0
C0
C0
ENDCHAR
STARTCHAR braceright
ENCODING 125
SWIDTH 428 0
DWIDTH 6 0
BBX 4 12 1 -1
BITMAP
E0
30
30
60
40
30
40
60
30
30
30
E0
ENDCHAR
STARTCHAR asciitilde
ENCODING 126
SWIDTH 642 0
DWIDTH 9 0
BBX 7 3 1 3
BITMAP
72
BA
9C
ENDCHAR
STARTCHAR space
ENCODING 160
SWIDTH 285 0
DWIDTH 4 0
BBX 0 0 0 0
BITMAP
ENDCHAR
STARTCHAR exclamdown
ENCODING 161
SWIDTH 285 0
DWIDTH 4 0
BBX 2 10 1 -2
BITMAP
C0
C0
00
40
C0
C0
C0
C0
C0
C0
ENDCHAR
STARTCHAR cent
ENCODING 162
SWIDTH 714 0
DWIDTH 10 0
BBX 7 12 1 -1
BITMAP
08
08
3E
6A
C8
C8
C8
C8
68
3E
08
08
ENDCHAR
STARTCHAR sterling
ENCODING 163
SWIDTH 714 0
DWIDTH 10 0
BBX 7 10 1 0
BITMAP
1C
32
30
30
FC
30
30
30
60
FE
ENDCHAR
STARTCHAR currency
ENCODING 164
SWIDTH 714 0
DWIDTH 10 0
BBX 9 10 0 0
BITMAP
8080
4100
3E00
6300
6300
6300
6300
3E00
4100
8080
ENDCHAR
STARTCHAR yen
ENCODING 165
SWIDTH 714 0
DWIDTH 10 0
BBX 8 10 1 0
BITMAP
C3
C3
62
66
34
7E
18
7E
18
18
ENDCHAR
STARTCHAR brokenbar
ENCODING 166
SWIDTH 285 0
DWIDTH 4 0
BBX 2 12 1 -1
BITMAP
C0
C0
C0
C0
C0
00
00
C0
C0
C0
C0
C0
ENDCHAR
STARTCHAR section
ENCODING 167
SWIDTH 714 0
DWIDTH 10 0
BBX 6 11 2 -1
BITMAP
78
CC
C0
70
D8
CC
6C
38
0C
CC
78
ENDCHAR
STARTCHAR dieresis
ENCODING 168
SWIDTH 714 0
DWIDTH 10 0
BBX 4 2 3 9
BITMAP
90
90
ENDCHAR
STARTCHAR copyright
ENCODING 169
SWIDTH 857 0
DWIDTH 12 0
BBX 10 10 1 0
BITMAP
1E00
6180
4080
8E40
9840
9840
8E40
4080
6180
1E00
ENDCHAR
STARTCHAR ordfeminine
ENCODING 170
SWIDTH 571 0
DWIDTH 8 0
BBX 6 6 1 4
BITMAP
70
18
78
D8
D8
6C
ENDCHAR
STARTCHAR guillemotleft
ENCODING 171
SWIDTH 642 0
DWIDTH 9 0
BBX 8 5 0 2
BITMAP
33
66
CC
66
33
ENDCHAR
STARTCHAR logicalnot
ENCODING 172
SWIDTH 714 0
DWIDTH 10 0
BBX 7 4 1 1
BITMAP
FE
02
02
02
ENDCHAR
STARTCHAR hyphen
ENCODING 173
SWIDTH 357 0
DWIDTH 5 0
BBX 3 1 1 4
BITMAP
E0
ENDCHAR
STARTCHAR registered
ENCODING 174
SWIDTH 714 0
DWIDTH 10 0
BBX 7 7 1 3
BITMAP
38
44
BA
B2
AA
44
38
ENDCHAR
STARTCHAR macron
ENCODING 175
SWIDTH 714 0
DWIDTH 10 0
BBX 4 1 3 9
BITMAP
F0
ENDCHAR
STARTCHAR degree
ENCODING 176
SWIDTH 285 0
DWIDTH 4 0
BBX 4 3 0 7
BITMAP
60
90
60
ENDCHAR
STARTCHAR plusminus
ENCODING 177
SWIDTH 714 0
DWIDTH 10 0
BBX 7 7 1 1
BITMAP
10
10
FE
10
10
00
FE
ENDCHAR
STARTCHAR twosuperior
ENCODING 178
SWIDTH 500 0
DWIDTH 7 0
BBX 5 6 1 4
BITMAP
F0
18
18
60
C0
F8
ENDCHAR
STARTCHAR threesuperior
ENCODING 179
SWIDTH 500 0
DWIDTH 7 0
BBX 5 6 1 4
BITMAP
F0
18
70
18
18
F0
ENDCHAR
STARTCHAR acute
ENCODING 180
SWIDTH 714 0
DWIDTH 10 0
BBX 5 2 3 9
BITMAP
38
E0
ENDCHAR
STARTCHAR mu
ENCODING 181
SWIDTH 714 0
DWIDTH 10 0
BBX 8 10 1 -2
BITMAP
C3
C3
C3
C3
C3
C3
E7
FB
C0
C0
ENDCHAR
STARTCHAR paragraph
ENCODING 182
SWIDTH 714 0
DWIDTH 10 0
BBX 6 11 2 -1
BITMAP
7C
F4
F4
F4
F4
74
14
14
14
14
14
ENDCHAR
STARTCHAR periodcentered
ENCODING 183
SWIDTH 714 0
DWIDTH 10 0
BBX 2 2 4 3
BITMAP
C0
C0
ENDCHAR
STARTCHAR cedilla
ENCODING 184
SWIDTH 714 0
DWIDTH 10 0
BBX 3 2 3 -2
BITMAP
20
C0
ENDCHAR
STARTCHAR onesuperior
ENCODING 185
SWIDTH 500 0
DWIDTH 7 0
BBX 4 6 1 4
BITMAP
30
F0
30
30
30
30
ENDCHAR
STARTCHAR ordmasculine
ENCODING 186
SWIDTH 571 0
DWIDTH 8 0
BBX 6 6 1 4
BITMAP
78
CC
CC
CC
CC
78
ENDCHAR
STARTCHAR guillemotright
ENCODING 187
SWIDTH 642 0
DWIDTH 9 0
BBX 8 5 1 2
BITMAP
CC
66
33
66
CC
ENDCHAR
STARTCHAR onequarter
ENCODING 188
SWIDTH 1000 0
DWIDTH 14 0
BBX 12 10 1 0
BITMAP
6100
E100
6200
6200
64E0
6560
0A60
0BF0
1060
1060
ENDCHAR
STARTCHAR onehalf
ENCODING 189
SWIDTH 1000 0
DWIDTH 14 0
BBX 12 10 1 0
BITMAP
6100
E100
6200
6200
64E0
6530
0870
08E0
1180
11F0
ENDCHAR
STARTCHAR threequarters
ENCODING 190
SWIDTH 1071 0
DWIDTH 15 0
BBX 13 10 1 0
BITMAP
7080
9880
3100
1A00
9A70
74B0
0530
09F8
1030
1030
ENDCHAR
STARTCHAR questiondown
ENCODING 191
SWIDTH 571 0
DWIDTH 8 0
BBX 6 10 1 -2
BITMAP
30
30
00
30
30
60
C0
C0
CC
78
ENDCHAR
STARTCHAR Agrave
ENCODING 192
SWIDTH 773 0
DWIDTH 11 0
BBX 9 13 1 0
BITMAP
7000
1C00
0000
1C00
1C00
2600
2600
6300
4300
FF00
C180
C180
C180
ENDCHAR
STARTCHAR Aacute
ENCODING 193
SWIDTH 773 0
DWIDTH 11 0
BBX 9 13 1 0
BITMAP
0700
1C00
0000
1C00
1C00
2600
2600
6300
4300
FF00
C180
C180
C180
ENDCHAR
STARTCHAR Acircumflex
ENCODING 194
SWIDTH 773 0
DWIDTH 11 0
BBX 9 13 1 0
BITMAP
1C00
2600
0000
1C00
1C00
2600
2600
6300
4300
FF00
C180
C180
C180
ENDCHAR
STARTCHAR Atilde
ENCODING 195
SWIDTH 773 0
DWIDTH 11 0
BBX 9 13 1 0
BITMAP
1A00
2C00
0000
1C00
1C00
2600
2600
6300
4300
FF00
C180
C180
C180
ENDCHAR
STARTCHAR Adieresis
ENCODING 196
SWIDTH 773 0
DWIDTH 10 0
BBX 8 13 1 0
BITMAP
24
24
00
18
18
2C
2C
66
46
FE
C3
C3
C3
ENDCHAR
STARTCHAR Aring
ENCODING 197
SWIDTH 773 0
DWIDTH 11 0
BBX 9 13 1 0
BITMAP
1C00
2600
1C00
1C00
1C00
2600
2600
6300
4300
FF00
C180
C180
C180
ENDCHAR
STARTCHAR AE
ENCODING 198
SWIDTH 997 0
DWIDTH 13 0
BBX 11 10 1 0
BITMAP
1FE0
1600
2600
2600
67C0
4600
7E00
C600
C600
C7E0
ENDCHAR
STARTCHAR Ccedilla
ENCODING 199
SWIDTH 726 0
DWIDTH 11 0
BBX 8 12 2 -2
BITMAP
3E
63
C0
C0
C0
C0
C0
C0
63
3E
08
30
ENDCHAR
STARTCHAR Egrave
ENCODING 200
SWIDTH 645 0
DWIDTH 9 0
BBX 6 13 2 0
BITMAP
70
1C
00
FC
C0
C0
C0
F8
C0
C0
C0
C0
FC
ENDCHAR
STARTCHAR Eacute
ENCODING 201
SWIDTH 645 0
DWIDTH 9 0
BBX 6 13 2 0
BITMAP
1C
70
00
FC
C0
C0
C0
F8
C0
C0
C0
C0
FC
ENDCHAR
STARTCHAR Ecircumflex
ENCODING 202
SWIDTH 645 0
DWIDTH 9 0
BBX 6 13 2 0
BITMAP
30
58
00
FC
C0
C0
C0
F8
C0
C0
C0
C0
FC
ENDCHAR
STARTCHAR Edieresis
ENCODING 203
SWIDTH 645 0
DWIDTH 9 0
BBX 6 13 2 0
BITMAP
48
48
00
FC
C0
C0
C0
F8
C0
C0
C0
C0
FC
ENDCHAR
STARTCHAR Igrave
ENCODING 204
SWIDTH 361 0
DWIDTH 6 0
BBX 4 13 1 0
BITMAP
E0
30
00
60
60
60
60
60
60
60
60
60
60
ENDCHAR
STARTCHAR Iacute
ENCODING 205
SWIDTH 361 0
DWIDTH 6 0
BBX 4 13 1 0
BITMAP
70
C0
00
60
60
60
60
60
60
60
60
60
60
ENDCHAR
STARTCHAR Icircumflex
ENCODING 206
SWIDTH 361 0
DWIDTH 6 0
BBX 4 13 1 0
BITMAP
60
B0
00
60
60
60
60
60
60
60
60
60
60
ENDCHAR
STARTCHAR Idieresis
ENCODING 207
SWIDTH 361 0
DWIDTH 6 0
BBX 4 13 1 0
BITMAP
90
90
00
60
60
60
60
60
60
60
60
60
60
ENDCHAR
STARTCHAR Eth
ENCODING 208
SWIDTH 819 0
DWIDTH 12 0
BBX 11 10 0 0
BITMAP
3F80
30C0
3060
3060
FC60
3060
3060
3060
30C0
3F80
ENDCHAR
STARTCHAR Ntilde
ENCODING 209
SWIDTH 783 0
DWIDTH 12 0
BBX 8 13 2 0
BITMAP
1A
2C
00
E1
E1
B1
B1
99
99
8D
8D
87
87
ENDCHAR
STARTCHAR Ograve
ENCODING 210
SWIDTH 855 0
DWIDTH 12 0
BBX 10 13 1 0
BITMAP
3800
0E00
0000
3F00
6180
C0C0
C0C0
C0C0
C0C0
C0C0
C0C0
6180
3F00
ENDCHAR
STARTCHAR Oacute
ENCODING 211
SWIDTH 855 0
DWIDTH 12 0
BBX 10 13 1 0
BITMAP
0700
1C00
0000
3F00
6180
C0C0
C0C0
C0C0
C0C0
C0C0
C0C0
6180
3F00
ENDCHAR
STARTCHAR Ocircumflex
ENCODING 212
SWIDTH 855 0
DWIDTH 12 0
BBX 10 13 1 0
BITMAP
0C00
1600
0000
3F00
6180
C0C0
C0C0
C0C0
C0C0
C0C0
C0C0
6180
3F00
ENDCHAR
STARTCHAR Otilde
ENCODING 213
SWIDTH 855 0
DWIDTH 12 0
BBX 10 13 1 0
BITMAP
0D00
1600
0000
3F00
6180
C0C0
C0C0
C0C0
C0C0
C0C0
C0C0
6180
3F00
ENDCHAR
STARTCHAR Odieresis
ENCODING 214
SWIDTH 855 0
DWIDTH 12 0
BBX 10 13 1 0
BITMAP
2100
2100
0000
3F00
6180
C0C0
C0C0
C0C0
C0C0
C0C0
C0C0
6180
3F00
ENDCHAR
STARTCHAR multiply
ENCODING 215
SWIDTH 687 0
DWIDTH 10 0
BBX 5 5 2 2
BITMAP
C8
70
20
70
98
ENDCHAR
STARTCHAR Oslash
ENCODING 216
SWIDTH 855 0
DWIDTH 12 0
BBX 10 12 1 -1
BITMAP
0040
3F40
6180
C2C0
C2C0
C4C0
C8C0
D0C0
D0C0
6180
BF00
8000
ENDCHAR
STARTCHAR Ugrave
ENCODING 217
SWIDTH 783 0
DWIDTH 12 0
BBX 8 13 2 0
BITMAP
70
1C
00
C3
C3
C3
C3
C3
C3
C3
C3
66
3C
ENDCHAR
STARTCHAR Uacute
ENCODING 218
SWIDTH 783 0
DWIDTH 12 0
BBX 8 13 2 0
BITMAP
0E
38
00
C3
C3
C3
C3
C3
C3
C3
C3
66
3C
ENDCHAR
STARTCHAR Ucircumflex
ENCODING 219
SWIDTH 783 0
DWIDTH 12 0
BBX 8 13 2 0
BITMAP
18
2C
00
C3
C3
C3
C3
C3
C3
C3
C3
66
3C
ENDCHAR
STARTCHAR Udieresis
ENCODING 220
SWIDTH 783 0
DWIDTH 12 0
BBX 8 13 2 0
BITMAP
24
24
00
C3
C3
C3
C3
C3
C3
C3
C3
64
3C
ENDCHAR
STARTCHAR Yacute
ENCODING 221
SWIDTH 738 0
DWIDTH 10 0
BBX 8 13 1 0
BITMAP
0E
38
00
C3
C3
62
66
34
18
18
18
18
18
ENDCHAR
STARTCHAR Thorn
ENCODING 222
SWIDTH 657 0
DWIDTH 9 0
BBX 6 10 2 0
BITMAP
C0
C0
F8
CC
CC
CC
CC
F8
C0
C0
ENDCHAR
STARTCHAR germandbls
ENCODING 223
SWIDTH 724 0
DWIDTH 10 0
BBX 8 11 1 0
BITMAP
7C
C6
C6
C4
CC
C6
C3
C3
C3
C3
CE
ENDCHAR
STARTCHAR agrave
ENCODING 224
SWIDTH 623 0
DWIDTH 9 0
BBX 8 11 1 0
BITMAP
70
1C
00
7C
06
06
7E
C6
C6
CE
77
ENDCHAR
STARTCHAR aacute
ENCODING 225
SWIDTH 623 0
DWIDTH 9 0
BBX 8 11 1 0
BITMAP
0E
38
00
7C
06
06
7E
C6
C6
CE
77
ENDCHAR
STARTCHAR acircumflex
ENCODING 226
SWIDTH 623 0
DWIDTH 9 0
BBX 8 11 1 0
BITMAP
18
2C
00
7C
06
06
7E
C6
C6
CE
77
ENDCHAR
STARTCHAR atilde
ENCODING 227
SWIDTH 623 0
DWIDTH 9 0
BBX 8 11 1 0
BITMAP
34
58
00
7C
06
06
7E
C6
C6
CE
77
ENDCHAR
STARTCHAR adieresis
ENCODING 228
SWIDTH 623 0
DWIDTH 9 0
BBX 8 11 1 0
BITMAP
24
24
00
7C
06
06
7E
C6
C6
CE
77
ENDCHAR
STARTCHAR aring
ENCODING 229
SWIDTH 623 0
DWIDTH 9 0
BBX 8 11 1 0
BITMAP
18
2C
18
7C
06
06
7E
C6
C6
CE
77
ENDCHAR
STARTCHAR ae
ENCODING 230
SWIDTH 913 0
DWIDTH 14 0
BBX 12 8 1 0
BITMAP
7DE0
0730
0630
7FF0
C600
C600
C710
79E0
ENDCHAR
STARTCHAR ccedilla
ENCODING 231
SWIDTH 545 0
DWIDTH 9 0
BBX 7 10 1 -2
BITMAP
3C
66
C0
C0
C0
C0
62
3C
10
60
ENDCHAR
STARTCHAR egrave
ENCODING 232
SWIDTH 614 0
DWIDTH 9 0
BBX 7 11 1 0
BITMAP
70
1C
00
3C
66
C6
FE
C0
C0
62
3C
ENDCHAR
STARTCHAR eacute
ENCODING 233
SWIDTH 614 0
DWIDTH 9 0
BBX 7 11 1 0
BITMAP
0E
38
00
3C
66
C6
FE
C0
C0
62
3C
ENDCHAR
STARTCHAR ecircumflex
ENCODING 234
SWIDTH 614 0
DWIDTH 9 0
BBX 7 11 1 0
BITMAP
18
2C
00
3C
66
C6
FE
C0
C0
62
3C
ENDCHAR
STARTCHAR edieresis
ENCODING 235
SWIDTH 614 0
DWIDTH 9 0
BBX 7 11 1 0
BITMAP
44
44
00
3C
66
C6
FE
C0
C0
62
3C
ENDCHAR
STARTCHAR igrave
ENCODING 236
SWIDTH 361 0
DWIDTH 4 0
BBX 4 11 0 0
BITMAP
E0
30
00
60
60
60
60
60
60
60
60
ENDCHAR
STARTCHAR iacute
ENCODING 237
SWIDTH 361 0
DWIDTH 4 0
BBX 4 11 0 0
BITMAP
70
C0
00
60
60
60
60
60
60
60
60
ENDCHAR
STARTCHAR icircumflex
ENCODING 238
SWIDTH 361 0
DWIDTH 4 0
BBX 4 11 0 0
BITMAP
60
B0
00
60
60
60
60
60
60
60
60
ENDCHAR
STARTCHAR idieresis
ENCODING 239
SWIDTH 361 0
DWIDTH 4 0
BBX 4 11 0 0
BITMAP
90
90
00
60
60
60
60
60
60
60
60
ENDCHAR
STARTCHAR eth
ENCODING 240
SWIDTH 675 0
DWIDTH 10 0
BBX 8 11 1 0
BITMAP
10
3E
0C
3E
66
C3
C3
C3
C3
66
3C
ENDCHAR
STARTCHAR ntilde
ENCODING 241
SWIDTH 693 0
DWIDTH 10 0
BBX 8 11 1 0
BITMAP
1A
2C
00
DE
E7
C3
C3
C3
C3
C3
C3
ENDCHAR
STARTCHAR ograve
ENCODING 242
SWIDTH 675 0
DWIDTH 10 0
BBX 8 11 1 0
BITMAP
70
1C
00
3C
66
C3
C3
C3
C3
66
3C
ENDCHAR
STARTCHAR oacute
ENCODING 243
SWIDTH 675 0
DWIDTH 10 0
BBX 8 11 1 0
BITMAP
0E
38
00
3C
66
C3
C3
C3
C3
66
3C
ENDCHAR
STARTCHAR ocircumflex
ENCODING 244
SWIDTH 675 0
DWIDTH 10 0
BBX 8 11 1 0
BITMAP
18
2C
00
3C
66
C3
C3
C3
C3
66
3C
ENDCHAR
STARTCHAR otilde
ENCODING 245
SWIDTH 675 0
DWIDTH 10 0
BBX 8 11 1 0
BITMAP
34
58
00
3C
66
C3
C3
C3
C3
66
3C
ENDCHAR
STARTCHAR odieresis
ENCODING 246
SWIDTH 675 0
DWIDTH 10 0
BBX 8 11 1 0
BITMAP
24
24
00
3C
66
C3
C3
C3
C3
66
3C
ENDCHAR
STARTCHAR divide
ENCODING 247
SWIDTH 687 0
DWIDTH 10 0
BBX 7 7 1 1
BITMAP
10
10
00
FE
00
10
10
ENDCHAR
STARTCHAR oslash
ENCODING 248
SWIDTH 675 0
DWIDTH 10 0
BBX 8 10 1 -1
BITMAP
01
3D
66
CB
CB
D3
D3
66
BC
80
ENDCHAR
STARTCHAR ugrave
ENCODING 249
SWIDTH 693 0
DWIDTH 10 0
BBX 8 11 1 0
BITMAP
70
1C
00
C3
C3
C3
C3
C3
C3
E7
7B
ENDCHAR
STARTCHAR uacute
ENCODING 250
SWIDTH 693 0
DWIDTH 10 0
BBX 8 11 1 0
BITMAP
1C
70
00
C3
C3
C3
C3
C3
C3
E7
7B
ENDCHAR
STARTCHAR ucircumflex
ENCODING 251
SWIDTH 693 0
DWIDTH 10 0
BBX 8 11 1 0
BITMAP
18
2C
00
C3
C3
C3
C3
C3
C3
E7
7B
ENDCHAR
STARTCHAR udieresis
ENCODING 252
SWIDTH 693 0
DWIDTH 10 0
BBX 8 11 1 0
BITMAP
24
24
00
C3
C3
C3
C3
C3
C3
E7
7B
ENDCHAR
STARTCHAR yacute
ENCODING 253
SWIDTH 645 0
DWIDTH 9 0
BBX 7 13 1 -2
BITMAP
1C
70
00
C6
C6
C6
C6
6C
68
38
30
60
E0
ENDCHAR
STARTCHAR thorn
ENCODING 254
SWIDTH 696 0
DWIDTH 10 0
BBX 8 12 1 -2
BITMAP
C0
C0
DC
E6
C3
C3
C3
C3
C6
FC
C0
C0
ENDCHAR
STARTCHAR ydieresis
ENCODING 255
SWIDTH 645 0
DWIDTH 9 0
BBX 7 13 1 -2
BITMAP
44
44
00
C6
C6
C6
C6
6C
68
38
30
60
E0
ENDCHAR
STARTCHAR uni0400
ENCODING 1024
SWIDTH 645 0
DWIDTH 9 0
BBX 6 13 2 0
BITMAP
70
1C
00
FC
C0
C0
C0
F8
C0
C0
C0
C0
FC
ENDCHAR
STARTCHAR afii10023
ENCODING 1025
SWIDTH 645 0
DWIDTH 9 0
BBX 6 13 2 0
BITMAP
48
48
00
FC
C0
C0
C0
F8
C0
C0
C0
C0
FC
ENDCHAR
STARTCHAR afii10051
ENCODING 1026
SWIDTH 1000 0
DWIDTH 14 0
BBX 11 10 1 0
BITMAP
FF00
1800
1800
1B80
1CC0
1860
1860
1860
18C0
1980
ENDCHAR
STARTCHAR afii10052
ENCODING 1027
SWIDTH 642 0
DWIDTH 9 0
BBX 6 13 2 0
BITMAP
1C
70
00
FC
C0
C0
C0
C0
C0
C0
C0
C0
C0
ENDCHAR
STARTCHAR afii10053
ENCODING 1028
SWIDTH 785 0
DWIDTH 11 0
BBX 8 10 2 0
BITMAP
3E
63
C0
C0
F8
C0
C0
C0
63
3E
ENDCHAR
STARTCHAR afii10054
ENCODING 1029
SWIDTH 642 0
DWIDTH 9 0
BBX 7 10 1 0
BITMAP
7C
C6
C0
E0
78
3C
0E
06
C6
7C
ENDCHAR
STARTCHAR afii10055
ENCODING 1030
SWIDTH 428 0
DWIDTH 6 0
BBX 2 10 2 0
BITMAP
C0
C0
C0
C0
C0
C0
C0
C0
C0
C0
ENDCHAR
STARTCHAR afii10056
ENCODING 1031
SWIDTH 361 0
DWIDTH 6 0
BBX 4 13 1 0
BITMAP
90
90
00
60
60
60
60
60
60
60
60
60
60
ENDCHAR
STARTCHAR afii10057
ENCODING 1032
SWIDTH 428 0
DWIDTH 6 0
BBX 4 12 0 -2
BITMAP
30
30
30
30
30
30
30
30
30
30
30
E0
ENDCHAR
STARTCHAR afii10058
ENCODING 1033
SWIDTH 1142 0
DWIDTH 16 0
BBX 14 10 1 0
BITMAP
3F80
3180
3180
3180
31E0
3198
318C
618C
618C
C1F8
ENDCHAR
STARTCHAR afii10059
ENCODING 1034
SWIDTH 1142 0
DWIDTH 16 0
BBX 13 10 2 0
BITMAP
C300
C300
C300
C300
FFC0
C330
C318
C318
C318
C3F0
ENDCHAR
STARTCHAR afii10060
ENCODING 1035
SWIDTH 1000 0
DWIDTH 14 0
BBX 11 10 1 0
BITMAP
FF00
1800
1800
1B80
1CC0
1860
1860
1860
1860
1860
ENDCHAR
STARTCHAR afii10061
ENCODING 1036
SWIDTH 785 0
DWIDTH 11 0
BBX 8 13 2 0
BITMAP
0E
38
00
C3
C6
CC
D8
F0
D8
CC
C6
C3
C3
ENDCHAR
STARTCHAR afii10062
ENCODING 1038
SWIDTH 785 0
DWIDTH 11 0
BBX 9 12 1 0
BITMAP
1C00
0000
C180
C180
C100
6300
6200
3600
1C00
1800
3000
6000
ENDCHAR
STARTCHAR afii10145
ENCODING 1039
SWIDTH 857 0
DWIDTH 12 0
BBX 8 12 2 -2
BITMAP
C3
C3
C3
C3
C3
C3
C3
C3
C3
FF
18
18
ENDCHAR
STARTCHAR afii10017
ENCODING 1040
SWIDTH 785 0
DWIDTH 11 0
BBX 9 10 1 0
BITMAP
1C00
1C00
2600
2600
6300
4300
FF00
C180
C180
C180
ENDCHAR
STARTCHAR afii10018
ENCODING 1041
SWIDTH 714 0
DWIDTH 10 0
BBX 7 10 2 0
BITMAP
FE
C0
C0
C0
F0
CC
C6
C6
C6
FC
ENDCHAR
STARTCHAR afii10019
ENCODING 1042
SWIDTH 714 0
DWIDTH 10 0
BBX 7 10 2 0
BITMAP
FC
C6
C6
CC
F0
CC
C6
C6
C6
FC
ENDCHAR
STARTCHAR afii10020
ENCODING 1043
SWIDTH 642 0
DWIDTH 9 0
BBX 6 10 2 0
BITMAP
FC
C0
C0
C0
C0
C0
C0
C0
C0
C0
ENDCHAR
STARTCHAR afii10021
ENCODING 1044
SWIDTH 857 0
DWIDTH 12 0
BBX 10 12 1 -2
BITMAP
3F80
3180
3180
3180
3180
3180
3180
6180
6180
FFC0
C0C0
C0C0
ENDCHAR
STARTCHAR afii10022
ENCODING 1045
SWIDTH 642 0
DWIDTH 9 0
BBX 6 10 2 0
BITMAP
FC
C0
C0
C0
F8
C0
C0
C0
C0
FC
ENDCHAR
STARTCHAR afii10024
ENCODING 1046
SWIDTH 1000 0
DWIDTH 14 0
BBX 12 10 1 0
BITMAP
C630
C630
6660
36C0
1F80
36C0
6660
6660
C630
C630
ENDCHAR
STARTCHAR afii10025
ENCODING 1047
SWIDTH 714 0
DWIDTH 10 0
BBX 7 10 2 0
BITMAP
7C
C6
06
0C
30
0C
06
06
CE
7C
ENDCHAR
STARTCHAR afii10026
ENCODING 1048
SWIDTH 857 0
DWIDTH 12 0
BBX 8 10 2 0
BITMAP
87
87
8D
8D
99
99
B1
B1
E1
E1
ENDCHAR
STARTCHAR afii10027
ENCODING 1049
SWIDTH 857 0
DWIDTH 12 0
BBX 8 12 2 0
BITMAP
3C
00
87
87
8D
8D
99
99
B1
B1
E1
E1
ENDCHAR
STARTCHAR afii10028
ENCODING 1050
SWIDTH 785 0
DWIDTH 11 0
BBX 8 10 2 0
BITMAP
C3
C6
CC
D8
F0
D8
CC
C6
C3
C3
ENDCHAR
STARTCHAR afii10029
ENCODING 1051
SWIDTH 857 0
DWIDTH 12 0
BBX 9 10 1 0
BITMAP
3F80
3180
3180
3180
3180
3180
3180
6180
6180
C180
ENDCHAR
STARTCHAR afii10030
ENCODING 1052
SWIDTH 1071 0
DWIDTH 15 0
BBX 11 10 2 0
BITMAP
E0E0
E0E0
B160
B160
B160
9A60
9A60
8C60
8C60
8060
ENDCHAR
STARTCHAR afii10031
ENCODING 1053
SWIDTH 857 0
DWIDTH 12 0
BBX 8 10 2 0
BITMAP
C3
C3
C3
C3
FF
C3
C3
C3
C3
C3
ENDCHAR
STARTCHAR afii10032
ENCODING 1054
SWIDTH 857 0
DWIDTH 12 0
BBX 10 10 1 0
BITMAP
3F00
6180
C0C0
C0C0
C0C0
C0C0
C0C0
C0C0
6180
3F00
ENDCHAR
STARTCHAR afii10033
ENCODING 1055
SWIDTH 857 0
DWIDTH 12 0
BBX 8 10 2 0
BITMAP
FF
C3
C3
C3
C3
C3
C3
C3
C3
C3
ENDCHAR
STARTCHAR afii10034
ENCODING 1056
SWIDTH 642 0
DWIDTH 9 0
BBX 6 10 2 0
BITMAP
F8
CC
CC
CC
CC
F8
C0
C0
C0
C0
ENDCHAR
STARTCHAR afii10035
ENCODING 1057
SWIDTH 785 0
DWIDTH 11 0
BBX 8 10 2 0
BITMAP
3E
63
C0
C0
C0
C0
C0
C0
63
3E
ENDCHAR
STARTCHAR afii10036
ENCODING 1058
SWIDTH 714 0
DWIDTH 10 0
BBX 8 10 1 0
BITMAP
FF
18
18
18
18
18
18
18
18
18
ENDCHAR
STARTCHAR afii10037
ENCODING 1059
SWIDTH 785 0
DWIDTH 11 0
BBX 9 10 1 0
BITMAP
C180
C180
C100
6300
6200
3600
1C00
1800
3000
6000
ENDCHAR
STARTCHAR afii10038
ENCODING 1060
SWIDTH 1000 0
DWIDTH 14 0
BBX 12 10 1 0
BITMAP
0600
3FC0
6660
C630
C630
C630
C630
6660
3FC0
0600
ENDCHAR
STARTCHAR afii10039
ENCODING 1061
SWIDTH 642 0
DWIDTH 9 0
BBX 7 10 1 0
BITMAP
C6
C6
6C
6C
38
38
6C
6C
C6
C6
ENDCHAR
STARTCHAR afii10040
ENCODING 1062
SWIDTH 857 0
DWIDTH 12 0
BBX 9 12 2 -2
BITMAP
C300
C300
C300
C300
C300
C300
C300
C300
C300
FF80
0180
0180
ENDCHAR
STARTCHAR afii10041
ENCODING 1063
SWIDTH 785 0
DWIDTH 11 0
BBX 8 10 1 0
BITMAP
C3
C3
C3
C3
C3
67
3B
03
03
03
ENDCHAR
STARTCHAR afii10042
ENCODING 1064
SWIDTH 1071 0
DWIDTH 15 0
BBX 12 10 1 0
BITMAP
C630
C630
C630
C630
C630
C630
C630
C630
C630
FFF0
ENDCHAR
STARTCHAR afii10043
ENCODING 1065
SWIDTH 1071 0
DWIDTH 15 0
BBX 13 12 1 -2
BITMAP
C630
C630
C630
C630
C630
C630
C630
C630
C630
FFF8
0018
0018
ENDCHAR
STARTCHAR afii10044
ENCODING 1066
SWIDTH 785 0
DWIDTH 11 0
BBX 9 10 1 0
BITMAP
F000
3000
3000
3000
3C00
3300
3180
3180
3180
3F00
ENDCHAR
STARTCHAR afii10045
ENCODING 1067
SWIDTH 1071 0
DWIDTH 15 0
BBX 11 10 2 0
BITMAP
C060
C060
C060
C060
F060
CC60
C660
C660
C660
FC60
ENDCHAR
STARTCHAR afii10046
ENCODING 1068
SWIDTH 714 0
DWIDTH 10 0
BBX 7 10 2 0
BITMAP
C0
C0
C0
C0
F0
CC
C6
C6
C6
FC
ENDCHAR
STARTCHAR afii10047
ENCODING 1069
SWIDTH 785 0
DWIDTH 11 0
BBX 8 10 2 0
BITMAP
7C
C6
03
03
1F
03
03
03
C6
7C
ENDCHAR
STARTCHAR afii10048
ENCODING 1070
SWIDTH 1071 0
DWIDTH 15 0
BBX 13 10 1 0
BITMAP
C3E0
C630
CC18
CC18
FC18
CC18
CC18
CC18
C630
C3E0
ENDCHAR
STARTCHAR afii10049
ENCODING 1071
SWIDTH 785 0
DWIDTH 11 0
BBX 8 10 1 0
BITMAP
3F
63
63
23
33
1F
33
63
C3
C3
ENDCHAR
STARTCHAR afii10065
ENCODING 1072
SWIDTH 642 0
DWIDTH 9 0
BBX 8 8 1 0
BITMAP
7C
06
06
7E
C6
C6
CE
77
ENDCHAR
STARTCHAR afii10066
ENCODING 1073
SWIDTH 714 0
DWIDTH 10 0
BBX 8 11 1 0
BITMAP
1F
30
60
DC
E6
C3
C3
C3
C3
66
3C
ENDCHAR
STARTCHAR afii10067
ENCODING 1074
SWIDTH 642 0
DWIDTH 9 0
BBX 7 8 1 0
BITMAP
FC
C6
C4
F8
CC
C6
C6
FC
ENDCHAR
STARTCHAR afii10068
ENCODING 1075
SWIDTH 642 0
DWIDTH 9 0
BBX 6 8 2 0
BITMAP
FC
C0
C0
C0
C0
C0
C0
C0
ENDCHAR
STARTCHAR afii10069
ENCODING 1076
SWIDTH 714 0
DWIDTH 10 0
BBX 10 9 0 -1
BITMAP
3F80
3180
3180
3180
3180
6180
6180
FFC0
C0C0
ENDCHAR
STARTCHAR afii10070
ENCODING 1077
SWIDTH 642 0
DWIDTH 9 0
BBX 7 8 1 0
BITMAP
3C
66
C6
FE
C0
C0
62
3C
ENDCHAR
STARTCHAR afii10072
ENCODING 1078
SWIDTH 1000 0
DWIDTH 14 0
BBX 12 8 1 0
BITMAP
C630
6660
36C0
1F80
36C0
6660
C630
C630
ENDCHAR
STARTCHAR afii10073
ENCODING 1079
SWIDTH 642 0
DWIDTH 9 0
BBX 7 8 1 0
BITMAP
7C
C6
04
38
0C
06
86
7C
ENDCHAR
STARTCHAR afii10074
ENCODING 1080
SWIDTH 642 0
DWIDTH 9 0
BBX 7 8 1 0
BITMAP
8E
8E
9A
9A
B2
B2
E2
E2
ENDCHAR
STARTCHAR afii10075
ENCODING 1081
SWIDTH 642 0
DWIDTH 9 0
BBX 7 10 1 0
BITMAP
38
00
8E
8E
9A
9A
B2
B2
E2
E2
ENDCHAR
STARTCHAR afii10076
ENCODING 1082
SWIDTH 642 0
DWIDTH 9 0
BBX 8 8 1 0
BITMAP
C6
CC
D8
F0
D8
CC
C6
C7
ENDCHAR
STARTCHAR afii10077
ENCODING 1083
SWIDTH 714 0
DWIDTH 10 0
BBX 9 8 0 0
BITMAP
3F80
3180
3180
3180
3180
6180
6180
C180
ENDCHAR
STARTCHAR afii10078
ENCODING 1084
SWIDTH 785 0
DWIDTH 11 0
BBX 9 8 1 0
BITMAP
E380
E380
B580
B580
B580
9980
9980
8180
ENDCHAR
STARTCHAR afii10079
ENCODING 1085
SWIDTH 714 0
DWIDTH 10 0
BBX 8 8 1 0
BITMAP
C3
C3
C3
FF
C3
C3
C3
C3
ENDCHAR
STARTCHAR afii10080
ENCODING 1086
SWIDTH 714 0
DWIDTH 10 0
BBX 8 8 1 0
BITMAP
3C
66
C3
C3
C3
C3
66
3C
ENDCHAR
STARTCHAR afii10081
ENCODING 1087
SWIDTH 714 0
DWIDTH 10 0
BBX 8 8 1 0
BITMAP
FF
C3
C3
C3
C3
C3
C3
C3
ENDCHAR
STARTCHAR afii10082
ENCODING 1088
SWIDTH 714 0
DWIDTH 10 0
BBX 8 10 1 -2
BITMAP
DC
E6
C3
C3
C3
C3
C6
FC
C0
C0
ENDCHAR
STARTCHAR afii10083
ENCODING 1089
SWIDTH 642 0
DWIDTH 9 0
BBX 7 8 1 0
BITMAP
3C
66
C0
C0
C0
C0
62
3C
ENDCHAR
STARTCHAR afii10084
ENCODING 1090
SWIDTH 571 0
DWIDTH 8 0
BBX 6 8 1 0
BITMAP
FC
30
30
30
30
30
30
30
ENDCHAR
STARTCHAR afii10085
ENCODING 1091
SWIDTH 642 0
DWIDTH 9 0
BBX 7 10 1 -2
BITMAP
C6
C6
C6
C6
6C
68
38
30
60
E0
ENDCHAR
STARTCHAR afii10086
ENCODING 1092
SWIDTH 1000 0
DWIDTH 14 0
BBX 12 13 1 -2
BITMAP
0600
0600
0600
3FC0
6660
C630
C630
C630
C630
6660
3FC0
0600
0600
ENDCHAR
STARTCHAR afii10087
ENCODING 1093
SWIDTH 642 0
DWIDTH 9 0
BBX 7 8 1 0
BITMAP
C6
C6
64
38
38
4C
C6
C6
ENDCHAR
STARTCHAR afii10088
ENCODING 1094
SWIDTH 714 0
DWIDTH 10 0
BBX 9 9 1 -1
BITMAP
C300
C300
C300
C300
C300
C300
C300
FF80
0180
ENDCHAR
STARTCHAR afii10089
ENCODING 1095
SWIDTH 714 0
DWIDTH 10 0
BBX 8 8 1 0
BITMAP
C3
C3
C3
C3
E7
7B
03
03
ENDCHAR
STARTCHAR afii10090
ENCODING 1096
SWIDTH 1000 0
DWIDTH 14 0
BBX 12 8 1 0
BITMAP
C630
C630
C630
C630
C630
C630
C630
FFF0
ENDCHAR
STARTCHAR afii10091
ENCODING 1097
SWIDTH 1000 0
DWIDTH 14 0
BBX 13 9 1 -1
BITMAP
C630
C630
C630
C630
C630
C630
C630
FFF8
0018
ENDCHAR
STARTCHAR afii10092
ENCODING 1098
SWIDTH 714 0
DWIDTH 10 0
BBX 9 8 0 0
BITMAP
F000
3000
3000
3E00
3300
3180
3180
3F00
ENDCHAR
STARTCHAR afii10093
ENCODING 1099
SWIDTH 928 0
DWIDTH 13 0
BBX 11 8 1 0
BITMAP
C060
C060
C060
F860
CC60
C660
C660
FC60
ENDCHAR
STARTCHAR afii10094
ENCODING 1100
SWIDTH 642 0
DWIDTH 9 0
BBX 7 8 1 0
BITMAP
C0
C0
C0
F8
CC
C6
C6
FC
ENDCHAR
STARTCHAR afii10095
ENCODING 1101
SWIDTH 642 0
DWIDTH 9 0
BBX 7 8 1 0
BITMAP
78
CC
06
3E
06
06
8C
78
ENDCHAR
STARTCHAR afii10096
ENCODING 1102
SWIDTH 1000 0
DWIDTH 14 0
BBX 12 8 1 0
BITMAP
C3C0
C660
CC30
FC30
CC30
CC30
C660
C3C0
ENDCHAR
STARTCHAR afii10097
ENCODING 1103
SWIDTH 642 0
DWIDTH 9 0
BBX 7 8 1 0
BITMAP
7E
C6
C6
66
3E
66
C6
C6
ENDCHAR
STARTCHAR uni0450
ENCODING 1104
SWIDTH 614 0
DWIDTH 9 0
BBX 7 11 1 0
BITMAP
70
1C
00
3C
66
C6
FE
C0
C0
62
3C
ENDCHAR
STARTCHAR afii10071
ENCODING 1105
SWIDTH 614 0
DWIDTH 9 0
BBX 7 11 1 0
BITMAP
44
44
00
3C
66
C6
FE
C0
C0
62
3C
ENDCHAR
STARTCHAR afii10099
ENCODING 1106
SWIDTH 714 0
DWIDTH 10 0
BBX 9 13 0 -2
BITMAP
6000
FC00
6000
6F00
7380
6180
6180
6180
6180
6180
6180
0180
0700
ENDCHAR
STARTCHAR afii10100
ENCODING 1107
SWIDTH 642 0
DWIDTH 9 0
BBX 6 11 2 0
BITMAP
1C
70
00
FC
C0
C0
C0
C0
C0
C0
C0
ENDCHAR
STARTCHAR afii10101
ENCODING 1108
SWIDTH 642 0
DWIDTH 9 0
BBX 7 8 1 0
BITMAP
3C
66
C0
F8
C0
C0
62
3C
ENDCHAR
STARTCHAR afii10102
ENCODING 1109
SWIDTH 571 0
DWIDTH 8 0
BBX 6 8 1 0
BITMAP
7C
C0
C0
F0
3C
0C
0C
F8
ENDCHAR
STARTCHAR afii10103
ENCODING 1110
SWIDTH 285 0
DWIDTH 4 0
BBX 2 11 1 0
BITMAP
C0
C0
00
C0
C0
C0
C0
C0
C0
C0
C0
ENDCHAR
STARTCHAR afii10104
ENCODING 1111
SWIDTH 361 0
DWIDTH 4 0
BBX 4 11 0 0
BITMAP
90
90
00
60
60
60
60
60
60
60
60
ENDCHAR
STARTCHAR afii10105
ENCODING 1112
SWIDTH 357 0
DWIDTH 5 0
BBX 4 13 0 -2
BITMAP
30
30
00
30
30
30
30
30
30
30
30
30
E0
ENDCHAR
STARTCHAR afii10106
ENCODING 1113
SWIDTH 1071 0
DWIDTH 15 0
BBX 14 8 0 0
BITMAP
3F80
3180
3180
31F0
3198
618C
618C
C1F8
ENDCHAR
STARTCHAR afii10107
ENCODING 1114
SWIDTH 1071 0
DWIDTH 15 0
BBX 13 8 1 0
BITMAP
C300
C300
C300
FFE0
C330
C318
C318
C3F0
ENDCHAR
STARTCHAR afii10108
ENCODING 1115
SWIDTH 714 0
DWIDTH 10 0
BBX 9 11 0 0
BITMAP
6000
FC00
6000
6F00
7380
6180
6180
6180
6180
6180
6180
ENDCHAR
STARTCHAR afii10109
ENCODING 1116
SWIDTH 642 0
DWIDTH 9 0
BBX 8 11 1 0
BITMAP
1C
70
00
C6
CC
D8
F0
D8
CC
C6
C7
ENDCHAR
STARTCHAR afii10110
ENCODING 1118
SWIDTH 642 0
DWIDTH 9 0
BBX 7 12 1 -2
BITMAP
38
00
C6
C6
C6
C6
6C
68
38
30
60
E0
ENDCHAR
STARTCHAR afii10193
ENCODING 1119
SWIDTH 714 0
DWIDTH 10 0
BBX 8 9 1 -1
BITMAP
C3
C3
C3
C3
C3
C3
C3
FF
18
ENDCHAR
STARTCHAR afii10147
ENCODING 1138
SWIDTH 857 0
DWIDTH 12 0
BBX 10 10 1 0
BITMAP
3F00
6180
C0C0
C0C0
FFC0
C0C0
C0C0
C0C0
6180
3F00
ENDCHAR
STARTCHAR afii10195
ENCODING 1139
SWIDTH 714 0
DWIDTH 10 0
BBX 8 8 1 0
BITMAP
3C
66
C3
FF
C3
C3
66
3C
ENDCHAR
STARTCHAR afii10050
ENCODING 1168
SWIDTH 642 0
DWIDTH 9 0
BBX 6 12 2 0
BITMAP
0C
0C
FC
C0
C0
C0
C0
C0
C0
C0
C0
C0
ENDCHAR
STARTCHAR afii10098
ENCODING 1169
SWIDTH 642 0
DWIDTH 9 0
BBX 6 9 2 0
BITMAP
0C
FC
C0
C0
C0
C0
C0
C0
C0
ENDCHAR
STARTCHAR uni04AA
ENCODING 1194
SWIDTH 726 0
DWIDTH 11 0
BBX 8 12 2 -2
BITMAP
3E
63
C0
C0
C0
C0
C0
C0
63
3E
08
30
ENDCHAR
STARTCHAR uni04AB
ENCODING 1195
SWIDTH 545 0
DWIDTH 9 0
BBX 7 10 1 -2
BITMAP
3C
66
C0
C0
C0
C0
62
3C
10
60
ENDCHAR
STARTCHAR uni04AE
ENCODING 1198
SWIDTH 714 0
DWIDTH 10 0
BBX 8 10 1 0
BITMAP
C3
C3
62
66
34
18
18
18
18
18
ENDCHAR
STARTCHAR uni04C0
ENCODING 1216
SWIDTH 428 0
DWIDTH 6 0
BBX 2 10 2 0
BITMAP
C0
C0
C0
C0
C0
C0
C0
C0
C0
C0
ENDCHAR
STARTCHAR uni04D2
ENCODING 1234
SWIDTH 773 0
DWIDTH 10 0
BBX 8 13 1 0
BITMAP
24
24
00
18
18
2C
2C
66
46
FE
C3
C3
C3
ENDCHAR
STARTCHAR uni04D3
ENCODING 1235
SWIDTH 623 0
DWIDTH 9 0
BBX 8 11 1 0
BITMAP
24
24
00
7C
06
06
7E
C6
C6
CE
77
ENDCHAR
STARTCHAR uni04D4
ENCODING 1236
SWIDTH 997 0
DWIDTH 13 0
BBX 11 10 1 0
BITMAP
1FE0
1600
2600
2600
67C0
4600
7E00
C600
C600
C7E0
ENDCHAR
STARTCHAR uni04D5
ENCODING 1237
SWIDTH 913 0
DWIDTH 14 0
BBX 12 8 1 0
BITMAP
7DE0
0730
0630
7FF0
C600
C600
C710
79E0
ENDCHAR
STARTCHAR uni04E6
ENCODING 1254
SWIDTH 855 0
DWIDTH 12 0
BBX 10 13 1 0
BITMAP
2100
2100
0000
3F00
6180
C0C0
C0C0
C0C0
C0C0
C0C0
C0C0
6180
3F00
ENDCHAR
STARTCHAR uni04E7
ENCODING 1255
SWIDTH 675 0
DWIDTH 10 0
BBX 8 11 1 0
BITMAP
24
24
00
3C
66
C3
C3
C3
C3
66
3C
ENDCHAR
STARTCHAR uni04E8
ENCODING 1256
SWIDTH 857 0
DWIDTH 12 0
BBX 10 10 1 0
BITMAP
3F00
6180
C0C0
C0C0
FFC0
C0C0
C0C0
C0C0
6180
3F00
ENDCHAR
STARTCHAR uni04E9
ENCODING 1257
SWIDTH 714 0
DWIDTH 10 0
BBX 8 8 1 0
BITMAP
3C
66
C3
FF
C3
C3
66
3C
ENDCHAR
ENDFONT
